<svg width="55" height="55" viewBox="0 0 55 55" fill="none" xmlns="http://www.w3.org/2000/svg">
<rect width="55" height="55" rx="2" fill="#DD4053"/>
<g clip-path="url(#clip0_1802_3)">
<path d="M17.0195 34.96C17.0195 30.048 17.0195 25.136 17.0195 20.224C17.0275 20.18 17.0395 20.132 17.0475 20.088C17.2555 18.936 18.1795 18.164 19.3475 18.164C20.0595 18.164 20.7675 18.164 21.4795 18.164C21.5155 18.164 21.5515 18.164 21.5915 18.164C21.5915 18.056 21.5875 17.96 21.5915 17.864C21.6075 17.5 21.7835 17.24 22.1155 17.088C22.1835 17.056 22.2555 17.04 22.3275 17.02C22.4075 17.02 22.4915 17.02 22.5715 17.02C22.5835 17.024 22.5955 17.032 22.6075 17.036C23.0435 17.136 23.3035 17.46 23.3075 17.904C23.3075 17.988 23.3075 18.072 23.3075 18.156C25.7915 18.156 28.2595 18.156 30.7355 18.156C30.7355 18.052 30.7315 17.952 30.7355 17.852C30.7515 17.52 30.9075 17.268 31.2035 17.116C31.2875 17.072 31.3795 17.052 31.4675 17.02C31.5475 17.02 31.6315 17.02 31.7115 17.02C31.7235 17.024 31.7355 17.032 31.7475 17.036C32.1795 17.136 32.4435 17.46 32.4475 17.904C32.4475 17.988 32.4475 18.072 32.4475 18.164C32.4955 18.164 32.5315 18.164 32.5675 18.164C33.2995 18.164 34.0275 18.16 34.7595 18.164C35.7315 18.172 36.5915 18.8 36.8955 19.72C36.9515 19.888 36.9795 20.068 37.0195 20.244C37.0195 25.14 37.0195 30.04 37.0195 34.936C37.0115 34.964 37.0035 34.992 36.9995 35.024C36.8555 35.94 36.3475 36.564 35.4795 36.888C35.3075 36.952 35.1195 36.976 34.9355 37.016C29.6555 37.016 24.3795 37.016 19.0995 37.016C19.0755 37.008 19.0555 37 19.0315 37C18.0875 36.856 17.4555 36.336 17.1315 35.44C17.0795 35.288 17.0555 35.12 17.0195 34.96ZM23.3035 19.884C23.3035 19.988 23.3115 20.084 23.2995 20.176C23.2875 20.288 23.2715 20.4 23.2275 20.5C23.0795 20.876 22.6795 21.08 22.2755 21C21.8875 20.924 21.5995 20.58 21.5915 20.18C21.5875 20.08 21.5915 19.98 21.5915 19.876C21.0235 19.876 20.4755 19.876 19.9235 19.876C19.2275 19.876 18.7355 20.368 18.7355 21.064C18.7355 25.412 18.7355 29.764 18.7355 34.112C18.7355 34.808 19.2275 35.3 19.9235 35.304C24.6555 35.304 29.3835 35.304 34.1155 35.304C34.8115 35.304 35.3075 34.812 35.3075 34.12C35.3075 29.768 35.3075 25.412 35.3075 21.06C35.3075 20.372 34.8115 19.88 34.1235 19.876C33.5995 19.876 33.0755 19.876 32.5515 19.876C32.5195 19.876 32.4875 19.876 32.4515 19.876C32.4515 19.988 32.4555 20.088 32.4515 20.188C32.4395 20.624 32.0955 20.984 31.6635 21.02C31.2275 21.052 30.8315 20.752 30.7595 20.32C30.7355 20.176 30.7395 20.032 30.7315 19.88C28.2555 19.884 25.7875 19.884 23.3035 19.884Z" fill="white"/>
<path d="M26.4037 29.888C26.4277 29.852 26.4437 29.812 26.4717 29.78C27.9117 28.34 29.3517 26.9 30.7917 25.456C31.0837 25.164 31.4437 25.088 31.7877 25.24C32.2997 25.468 32.4557 26.128 32.0997 26.564C32.0677 26.6 32.0357 26.636 32.0037 26.668C30.3437 28.328 28.6837 29.984 27.0237 31.644C26.7037 31.964 26.2877 32.028 25.9397 31.812C25.8717 31.768 25.8077 31.716 25.7517 31.66C24.6997 30.612 23.6477 29.56 22.5997 28.508C22.1717 28.076 22.2557 27.404 22.7717 27.124C23.1117 26.94 23.5117 27.004 23.8077 27.296C24.1997 27.684 24.5877 28.076 24.9757 28.464C25.4197 28.908 25.8597 29.348 26.3037 29.792C26.3277 29.816 26.3517 29.836 26.4037 29.888Z" fill="white"/>
</g>
<defs>
<clipPath id="clip0_1802_3">
<rect width="20" height="20" fill="white" transform="translate(17 17)"/>
</clipPath>
</defs>
</svg>
