<svg width="35" height="21" viewBox="0 0 35 21" fill="none" xmlns="http://www.w3.org/2000/svg">
<rect width="35" height="20" rx="2" fill="#4AD295"/>
<path d="M13.5584 16H16.7744L13.9104 11.184C15.2384 10.672 16.1824 9.696 16.1824 7.984C16.1824 5.104 13.9264 4.4 10.9184 4.4H6.45444V16H9.19044V11.632H10.9184H11.0464L13.5584 16ZM10.9984 6.704C12.2944 6.704 13.2864 6.944 13.2864 8.016C13.2864 9.104 12.2944 9.328 10.9984 9.328H9.19044V6.704H10.9984ZM17.6999 4.4V11.04C17.6999 14.864 19.2679 16.208 22.7399 16.208C26.3559 16.208 27.7319 14.512 27.7319 10.944V4.4H24.9959V11.168C24.9959 12.88 24.6599 13.968 22.7399 13.968C20.8359 13.968 20.4359 13.024 20.4359 11.328V4.4H17.6999Z" fill="white"/>
</svg>
