<svg width="55" height="55" viewBox="0 0 55 55" fill="none" xmlns="http://www.w3.org/2000/svg">
<rect width="55" height="55" rx="2" fill="#4AD295"/>
<path d="M36.7111 34.6388L32.0273 30.3887C33.2316 29.1397 33.8914 27.5682 33.8914 25.9322C33.8914 22.1099 30.3269 19 25.9457 19C21.5645 19 18 22.1099 18 25.9322C18 29.7546 21.5645 32.8645 25.9457 32.8645C27.5905 32.8645 29.1579 32.4316 30.4979 31.61L35.2173 35.8923C35.4146 36.0711 35.6799 36.1696 35.9642 36.1696C36.2333 36.1696 36.4886 36.0801 36.6824 35.9174C37.0942 35.5716 37.1074 34.9984 36.7111 34.6388ZM25.9457 20.8084C29.1841 20.8084 31.8186 23.1069 31.8186 25.9322C31.8186 28.7576 29.1841 31.0561 25.9457 31.0561C22.7073 31.0561 20.0728 28.7576 20.0728 25.9322C20.0728 23.1069 22.7073 20.8084 25.9457 20.8084Z" fill="white"/>
</svg>
